<svg xmlns="http://www.w3.org/2000/svg" xmlns:xlink="http://www.w3.org/1999/xlink" version="1.1" width="256" height="256" viewBox="0 0 256 256" xml:space="preserve">
<g style="stroke: none; stroke-width: 0; stroke-dasharray: none; stroke-linecap: butt; stroke-linejoin: miter; stroke-miterlimit: 10; fill: none; fill-rule: nonzero; opacity: 1;" transform="translate(1.4065934065934016 1.4065934065934016) scale(2.81 2.81)">
	<path d="M 81.56 83.711 H 8.44 c -4.109 0 -7.44 -3.331 -7.44 -7.44 V 26.184 c 0 -4.109 3.331 -7.44 7.44 -7.44 H 81.56 c 4.109 0 7.44 3.331 7.44 7.44 v 50.087 C 89 80.38 85.669 83.711 81.56 83.711 z" style="stroke: none; stroke-width: 1; stroke-dasharray: none; stroke-linecap: butt; stroke-linejoin: miter; stroke-miterlimit: 10; fill: rgb(0,179,130); fill-rule: nonzero; opacity: 1;" transform=" matrix(1 0 0 1 0 0) " stroke-linecap="round"/>
	<path d="M 81.561 84.711 H 8.439 C 3.786 84.711 0 80.925 0 76.271 V 26.185 c 0 -4.654 3.786 -8.44 8.439 -8.44 h 73.121 c 4.653 0 8.439 3.786 8.439 8.44 v 50.087 C 90 80.925 86.214 84.711 81.561 84.711 z M 8.439 19.745 C 4.889 19.745 2 22.634 2 26.185 v 50.087 c 0 3.551 2.889 6.439 6.439 6.439 h 73.121 c 3.551 0 6.439 -2.889 6.439 -6.439 V 26.185 c 0 -3.551 -2.889 -6.44 -6.439 -6.44 H 8.439 z" style="stroke: none; stroke-width: 1; stroke-dasharray: none; stroke-linecap: butt; stroke-linejoin: miter; stroke-miterlimit: 10; fill: rgb(0,0,0); fill-rule: nonzero; opacity: 1;" transform=" matrix(1 0 0 1 0 0) " stroke-linecap="round"/>
	<polygon points="65,44.37 51.86,44.37 51.86,31.23 38.14,31.23 38.14,44.37 25,44.37 25,58.09 38.14,58.09 38.14,71.23 51.86,71.23 51.86,58.09 65,58.09 " style="stroke: none; stroke-width: 1; stroke-dasharray: none; stroke-linecap: butt; stroke-linejoin: miter; stroke-miterlimit: 10; fill: rgb(255,255,255); fill-rule: nonzero; opacity: 1;" transform="  matrix(1 0 0 1 0 0) "/>
	<path d="M 51.857 72.229 H 38.143 c -0.552 0 -1 -0.447 -1 -1 V 59.085 H 25 c -0.552 0 -1 -0.447 -1 -1 V 44.371 c 0 -0.552 0.448 -1 1 -1 h 12.143 V 31.228 c 0 -0.552 0.448 -1 1 -1 h 13.714 c 0.553 0 1 0.448 1 1 v 12.143 H 65 c 0.553 0 1 0.448 1 1 v 13.714 c 0 0.553 -0.447 1 -1 1 H 52.857 v 12.144 C 52.857 71.781 52.41 72.229 51.857 72.229 z M 39.143 70.229 h 11.714 V 58.085 c 0 -0.553 0.447 -1 1 -1 H 64 V 45.371 H 51.857 c -0.553 0 -1 -0.448 -1 -1 V 32.228 H 39.143 v 12.143 c 0 0.552 -0.448 1 -1 1 H 26 v 11.714 h 12.143 c 0.552 0 1 0.447 1 1 V 70.229 z" style="stroke: none; stroke-width: 1; stroke-dasharray: none; stroke-linecap: butt; stroke-linejoin: miter; stroke-miterlimit: 10; fill: rgb(0,0,0); fill-rule: nonzero; opacity: 1;" transform=" matrix(1 0 0 1 0 0) " stroke-linecap="round"/>
	<path d="M 32.415 18.745 V 16.76 c 0 -2.815 2.29 -5.105 5.105 -5.105 h 14.96 c 2.815 0 5.105 2.29 5.105 5.105 v 1.985 h 6.589 V 16.76 c 0 -6.448 -5.246 -11.694 -11.694 -11.694 H 37.52 c -6.448 0 -11.694 5.246 -11.694 11.694 v 1.985 H 32.415 z" style="stroke: none; stroke-width: 1; stroke-dasharray: none; stroke-linecap: butt; stroke-linejoin: miter; stroke-miterlimit: 10; fill: rgb(0,148,108); fill-rule: nonzero; opacity: 1;" transform=" matrix(1 0 0 1 0 0) " stroke-linecap="round"/>
	<path d="M 64.174 19.745 h -6.589 c -0.553 0 -1 -0.448 -1 -1 V 16.76 c 0 -2.263 -1.841 -4.104 -4.104 -4.104 H 37.52 c -2.264 0 -4.105 1.841 -4.105 4.104 v 1.985 c 0 0.552 -0.448 1 -1 1 h -6.589 c -0.552 0 -1 -0.448 -1 -1 V 16.76 c 0 -7 5.695 -12.694 12.694 -12.694 h 14.96 c 6.999 0 12.693 5.694 12.693 12.694 v 1.985 C 65.174 19.297 64.727 19.745 64.174 19.745 z M 58.585 17.745 h 4.589 V 16.76 c 0 -5.896 -4.797 -10.694 -10.693 -10.694 H 37.52 c -5.897 0 -10.694 4.797 -10.694 10.694 v 0.985 h 4.589 V 16.76 c 0 -3.366 2.739 -6.104 6.105 -6.104 h 14.96 c 3.366 0 6.104 2.738 6.104 6.104 V 17.745 z" style="stroke: none; stroke-width: 1; stroke-dasharray: none; stroke-linecap: butt; stroke-linejoin: miter; stroke-miterlimit: 10; fill: rgb(0,0,0); fill-rule: nonzero; opacity: 1;" transform=" matrix(1 0 0 1 0 0) " stroke-linecap="round"/>
</g>
</svg>